<svg id="blogs" xmlns="http://www.w3.org/2000/svg" viewBox="0 0 830 470"><defs><linearGradient id="linear-gradient" x1="18.621" y1="332.379" x2="560.661" y2="609.459" gradientTransform="matrix(1 0 0 -1 0 770)" gradientUnits="userSpaceOnUse"><stop offset="0" stop-color="#b9e793"/><stop offset="1" stop-color="#1cb1bb"/></linearGradient></defs><path fill="#00af41" d="M0 0h830v470H0z"/><path opacity=".61" fill="url(#linear-gradient)" style="isolation:isolate" d="M0 0h830v470H0z"/><path d="M272.85 383.74a29.56 29.56 0 0 1-24.52-13l-1-1.56-.9.42a29.56 29.56 0 0 1-36-10.71l-1.43-2.38-5.22-.53a29.56 29.56 0 0 1 6-58.51h.5l1.3-4.18a29.59 29.59 0 0 1 27.23-18.06 28.809 28.809 0 0 1 6 .61l4.16 1.28.47-1a29.55 29.55 0 0 1 50.83-3.08l2.45 4.51 1.54-.35a29.61 29.61 0 0 1 31.93 18.22l.72 2 5.69.57a29.57 29.57 0 0 1 0 57.92l-4.28.44-.19.41a29.6 29.6 0 0 1-38 14.12l-2.24-1.07-.51.83a29.54 29.54 0 0 1-24.53 13.1zm61.07-202.65a23.69 23.69 0 0 1-19.65-10.44l-.77-1.25-.72.34a23.69 23.69 0 0 1-28.86-8.58l-1.14-1.88-4.19-.43a23.69 23.69 0 0 1 4.78-46.85h.4l1-3.35a23.72 23.72 0 0 1 21.83-14.47 23.09 23.09 0 0 1 4.78.49l3.33 1 .37-.8a23.68 23.68 0 0 1 40.73-2.47l2 3.61 1.23-.28a23.73 23.73 0 0 1 25.59 14.6l.58 1.64 4.56.46a23.7 23.7 0 0 1 0 46.42l-3.43.35-.15.33a23.72 23.72 0 0 1-30.45 11.31L354 170l-.41.67a23.67 23.67 0 0 1-19.67 10.42zm264.76.2a14.68 14.68 0 0 1-12.18-6.47l-.5-.82-.45.21a14.69 14.69 0 0 1-17.89-5.32l-.71-1.17-2.59-.26a14.68 14.68 0 0 1 3-29.07h.25l.64-2.08a14.7 14.7 0 0 1 13.53-9 14.31 14.31 0 0 1 3 .3l2.07.64.23-.5a14.68 14.68 0 0 1 25.25-1.53l1.22 2.24.76-.18a14.71 14.71 0 0 1 15.86 9.05l.36 1 2.83.28a14.69 14.69 0 0 1 0 28.78l-2.12.22-.09.21a14.7 14.7 0 0 1-18.87 7l-1.11-.53-.25.41a14.67 14.67 0 0 1-12.24 6.59z" fill="#fff"/><ellipse cx="417.21" cy="385.54" rx="246.85" ry="13.93" fill="#65696d" opacity=".2" style="isolation:isolate"/><path d="M616.28 126.08a8 8 0 0 0-8-8H228.75a8 8 0 0 0-8 8V371.6h395.53z" fill="#6a6b6b"/><path d="M191.69 379.57c.6 2.32 1.56 4.54 2.9 5.31h447.9c1.33-.77 2.28-3 2.88-5.31z" fill="#e6e6e6"/><path d="M645.47 374.26v-4h-455.2v4c0 1.28.92 3.33 1.44 5.31h453.67c.51-1.98.09-4.03.09-5.31z" fill="#666"/><path fill="#fff" d="M234.06 147.32h368.95v222.96H234.06z"/><path fill="#e6e6e6" d="M234.06 131.39h368.95v17.25H234.06z"/><path fill="#d9dada" d="M405.26 372.93h26.54v3.98h-26.54z"/><circle cx="283.83" cy="139.35" r="3.98" fill="#fff"/><circle cx="270.56" cy="139.35" r="3.98" fill="#fff"/><circle cx="257.29" cy="139.35" r="3.98" fill="#fff"/><path fill="#c0c2c2" d="M256.62 164.57h321.17v47.78H256.62z"/><path fill="#e6e6e6" d="M256.62 222.96h138.02v5.31H256.62zm0 13.28h103.52v5.31H256.62zm0 13.27h177.84v5.31H256.62zm0 13.27h103.52v5.31H256.62zm0 13.27h138.02v5.31H256.62zm0 13.27h103.52v5.31H256.62zm0 13.27h177.84v5.31H256.62zm0 13.27h103.52v5.31H256.62zm0 13.28h177.84v5.31H256.62zm0 13.27h103.52v5.31H256.62z"/><path fill="#ff6b00" d="M522.05 242.87h-55.74v38.49h23.702l-3.792 8.85 10.38-8.85h25.45v-38.49z"/><path fill="#fff" d="M474.27 250.83h39.81v2.65h-39.81zm0 6.64h27.87v2.65h-27.87zm0 6.64h39.81v2.65h-39.81zm0 6.63h27.87v2.65h-27.87z"/><path fill="#3fd5ae" d="M559.21 258.8h-33.18v22.56h18.14l4.87 5.31-1.064-5.31h11.234V258.8z"/><path fill="#fff" d="M530.01 264.11h25.22v1.33h-25.22zm0 3.98h15.93v1.33h-15.93zm0 3.98h25.22v1.33h-25.22zm0 3.98h15.93v1.33h-15.93z"/><path fill="#ffc700" d="M390.68 324.46l16.42-16.43-5.63-5.63-5.63-5.63-16.42 16.43-16.43 16.42 11.26 11.26 16.43-16.42z"/><path fill="#6a6b6b" d="M410.38 304.75l-3.28 3.28-5.63-5.63-5.63-5.63 3.28-3.28 3.29-3.29 11.26 11.26-3.29 3.29z"/><path fill="#fff" d="M362.99 329.62l11.26 11.26-16.89 5.63 5.63-16.89z"/><path fill="#6a6b6b" d="M360.18 338.06l5.63 5.63-8.45 2.82 2.82-8.45z"/><path fill="#fff" d="M207.52 137.98h1.33v8h-1.33zm0-15.93h1.33v8h-1.33zm0-15.93h1.33v8h-1.33zm2.54-7.69l-1.06-.8a8.92 8.92 0 0 1 7.15-3.42h.66v1.33h-.66a7.59 7.59 0 0 0-6.09 2.91zm14.62-4.2h8v1.31h-8zm15.93 0h8v1.31h-8zm15.93 0h8v1.31h-8zm15.93 0h8v1.31h-8zm15.93 0h8v1.31h-8zm15.93 0h8v1.31h-8zm15.93 0h8v1.31h-8zm15.93 0h8v1.31h-8zm15.93 0h8v1.31h-8zm15.93 0h8v1.31h-8zm17.25 0h8v1.31h-8zm15.93 0h8v1.31h-8zm15.93 0h8v1.31h-8zm15.93 0h8v1.31h-8zm92.88-1.33h8v1.24h-8zm15.93 0h8v1.24h-8zm15.93 0h8v1.24h-8zm15.93 0h8v1.24h-8zm15.93 0h8v1.24h-8zm15.93 0h8v1.24h-8zm19.86 7.41a7.26 7.26 0 0 0-4.26-5.55l.54-1.21a8.58 8.58 0 0 1 5 6.56zm.08 8.39h1.33v8h-1.33zm0 15.93h1.33v8h-1.33zm0 15.93h1.33v8h-1.33zm0 15.93h1.33v8h-1.33zm0 15.93h1.33v8h-1.33zm0 15.93h1.33v8h-1.33zm0 15.93h1.33v8h-1.33zm0 15.93h1.33v8h-1.33zm0 15.93h1.33v8h-1.33zM162.4 244.2h50.43v1.33H162.4zm0 6.63h45.12v1.33H162.4zm0 6.64h29.2v1.33h-29.2zm0 6.64h17.25v1.33H162.4zM201.84 280h-3.62v-3.61a.85.85 0 1 0-1.69 0V280h-3.62a.85.85 0 1 0 0 1.69h3.62v3.62a.85.85 0 1 0 1.69 0v-3.62h3.62a.85.85 0 0 0 0-1.69zm-15.92-138.88h-3.62v-3.61a.85.85 0 1 0-1.69 0v3.61H177a.85.85 0 1 0 0 1.69h3.62v3.62a.85.85 0 1 0 1.69 0v-3.62h3.62a.85.85 0 0 0 0-1.69zm-36.35 48.08a6.86 6.86 0 1 1 6.86-6.86 6.86 6.86 0 0 1-6.86 6.86zm0-12.39a5.53 5.53 0 1 0 5.53 5.53 5.54 5.54 0 0 0-5.53-5.53zm22.56 125.56a6.86 6.86 0 1 1 6.86-6.86 6.87 6.87 0 0 1-6.86 6.86zm0-12.39a5.53 5.53 0 1 0 5.53 5.53 5.54 5.54 0 0 0-5.53-5.51zm468.04-89.58h50.43v1.33h-50.43zm0 6.64h45.12v1.33h-45.12zm0 6.63h29.2V215h-29.2zm0 6.64h17.25v1.33h-17.25zm27.06 18.14h-3.62v-3.61a.85.85 0 1 0-1.69 0v3.61h-3.62a.85.85 0 1 0 0 1.69h3.62v3.62a.85.85 0 1 0 1.69 0v-3.62h3.62a.85.85 0 0 0 0-1.69zm-28.31 94.67h-3.62v-3.62a.85.85 0 1 0-1.69 0v3.61H630a.85.85 0 1 0 0 1.69h3.62v3.62a.85.85 0 1 0 1.69 0v-3.62h3.62a.85.85 0 0 0 0-1.69zm30.89-36.06a6.86 6.86 0 1 1 6.86-6.86 6.87 6.87 0 0 1-6.86 6.86zm0-12.39a5.525 5.525 0 1 1 0 .01zm-14.6-97.76a6.86 6.86 0 1 1 6.86-6.86 6.87 6.87 0 0 1-6.86 6.86zm0-12.39a5.53 5.53 0 1 0 5.53 5.53 5.53 5.53 0 0 0-5.53-5.53z"/><circle cx="208.85" cy="192.44" r="38.49" fill="#3fd5ae"/><path fill="#6a6b6b" d="M190.27 177.84h37.16v26.54h-37.16z"/><path fill="#ffc700" d="M227.43 204.38h-37.17v-26.54l18.58 13.27 18.59-13.27v26.54z"/><path fill="#345" opacity=".1" style="isolation:isolate" d="M227.43 204.38l-18.59-13.27 18.59-13.27v26.54z"/><circle cx="486.55" cy="100.87" r="38.49" fill="#3fd5ae"/><path d="M502.68 97.11a16 16 0 1 0-32 0c0 7.2 9.51 14 9.51 14a5.74 5.74 0 0 1 2 3.44l.55 4.39a2.55 2.55 0 0 0 2.46 2.17h4.37A2.55 2.55 0 0 0 492 119l.62-4.95a6.4 6.4 0 0 1 1.95-3.57s8.11-6.74 8.11-13.37z" fill="#fff"/><path fill="#6a6b6b" d="M483.02 120.06h8.74v4.37h-8.74z"/><circle cx="618.93" cy="280.03" r="38.49" fill="#3fd5ae"/><path d="M632.86 281.37a2 2 0 0 0 2-2h.01a2 2 0 0 0-2-2h-3.321a5.264 5.264 0 0 0-.184-1.31h3.5a2 2 0 0 0 2-2h.01a2 2 0 0 0-2-2l-16.5.01a24.313 24.313 0 0 1 2.378-4.92c1.32-2.66-2-5.31-2-5.31 0 1.77-5.75 14.16-5.75 14.16s-.03.9-.03 1.38v9.29a5.31 5.31 0 0 0 5.31 5.31l16.58.02a2 2 0 0 0 2-2h.01a2 2 0 0 0-2-2h-3.509a5.262 5.262 0 0 0 .188-1.32h3.311a2 2 0 0 0 2-2h.01a2 2 0 0 0-2-2h-3.32v-1.31z" fill="#fff"/><path fill="#6a6b6b" d="M604.33 274.72h5.31v15.93h-5.31z"/></svg>